HIERARCHY
ROOT SpineBase
{
  OFFSET 0.000000 0.000000 0.000000
  CHANNELS 6 Xposition Yposition Zposition Zrotation Xrotation Yrotation
  JOINT SpineMid
  {
    OFFSET 0.000000 26.250751 0.000000
    CHANNELS 3 Zrotation Xrotation Yrotation
    JOINT SpineShoulder
    {
      OFFSET -0.087525 19.591017 -0.687991
      CHANNELS 3 Zrotation Xrotation Yrotation
      JOINT Neck
      {
        OFFSET -0.065523 6.510544 -0.535388
        CHANNELS 3 Zrotation Xrotation Yrotation
        JOINT Head
        {
          OFFSET 2.247942 10.681818 -0.668172
          CHANNELS 3 Zrotation Xrotation Yrotation
          End Site
          {
            OFFSET 0 0 0
          }
        }
      }
      JOINT ShoulderLeft
      {
        OFFSET -12.927373 -2.297553 -7.713468
        CHANNELS 3 Zrotation Xrotation Yrotation
        JOINT ElbowLeft
        {
          OFFSET -3.990988 -21.390686 -1.535987
          CHANNELS 3 Zrotation Xrotation Yrotation
          JOINT WristLeft
          {
            OFFSET -2.066654 -16.910198 -13.028719
            CHANNELS 3 Zrotation Xrotation Yrotation
            JOINT HandLeft
            {
              OFFSET 1.784759 -5.102347 0.994285
              CHANNELS 3 Zrotation Xrotation Yrotation
              JOINT HandTipLeft
              {
                OFFSET 1.806539 -4.513099 -2.042709
                CHANNELS 3 Zrotation Xrotation Yrotation
                End Site
                {
                  OFFSET 0 0 0
                }
              }
              JOINT ThumbLeft
              {
                OFFSET -1.517015 -0.497517 2.381301
                CHANNELS 3 Zrotation Xrotation Yrotation
                End Site
                {
                  OFFSET 0 0 0
                }
              }
            }
          }
        }
      }
      JOINT ShoulderRight
      {
        OFFSET 15.206504 -2.450835 2.473570
        CHANNELS 3 Zrotation Xrotation Yrotation
        JOINT ElbowRight
        {
          OFFSET 7.787653 -20.225495 3.860756
          CHANNELS 3 Zrotation Xrotation Yrotation
          JOINT WristRight
          {
            OFFSET 4.615279 -13.175064 -8.978474
            CHANNELS 3 Zrotation Xrotation Yrotation
            JOINT HandRight
            {
              OFFSET -0.873422 -0.532953 -5.394318
              CHANNELS 3 Zrotation Xrotation Yrotation
              JOINT HandTipRight
              {
                OFFSET 1.686539 -2.113346 -6.083428
                CHANNELS 3 Zrotation Xrotation Yrotation
                End Site
                {
                  OFFSET 0 0 0
                }
              }
              JOINT ThumbRight
              {
                OFFSET -3.448075 -0.643302 -2.364960
                CHANNELS 3 Zrotation Xrotation Yrotation
                End Site
                {
                  OFFSET 0 0 0
                }
              }
            }
          }
        }
      }
    }
  }
  JOINT HipLeft
  {
    OFFSET -6.013459 0.920532 -3.941182
    CHANNELS 3 Zrotation Xrotation Yrotation
    JOINT KneeLeft
    {
      OFFSET 10.526017 -0.652536 -28.225535
      CHANNELS 3 Zrotation Xrotation Yrotation
      JOINT AnkleLeft
      {
        OFFSET 6.154745 -33.623077 -2.881927
        CHANNELS 3 Zrotation Xrotation Yrotation
        JOINT FootLeft
        {
          OFFSET 4.320635 -5.854804 -5.455342
          CHANNELS 3 Zrotation Xrotation Yrotation
          End Site
          {
            OFFSET 0 0 0
          }
        }
      }
    }
  }
  JOINT HipRight
  {
    OFFSET 5.414248 0.782119 -1.948321
    CHANNELS 3 Zrotation Xrotation Yrotation
    JOINT KneeRight
    {
      OFFSET 24.726430 3.171298 -14.306807
      CHANNELS 3 Zrotation Xrotation Yrotation
      JOINT AnkleRight
      {
        OFFSET -0.683129 -37.068595 0.066354
        CHANNELS 3 Zrotation Xrotation Yrotation
        JOINT FootRight
        {
          OFFSET -0.622382 -5.218648 -8.652380
          CHANNELS 3 Zrotation Xrotation Yrotation
          End Site
          {
            OFFSET 0 0 0
          }
        }
      }
    }
  }
}
MOTION
Frames: 5
Frame Time: 0.033333
39.278214 39.502899 377.232963 -0.000000 0.000000 -9.892251 -0.000000 0.000000 9.892251 -0.000000 0.000000 0.000000 -0.000000 0.000000 0.000000 0.000000 0.000000 0.000000 -0.000000 0.000000 0.000000 -0.000000 0.000000 0.000000 -0.000000 0.000000 0.000000 -0.000000 0.000000 0.000000 0.000000 0.000000 0.000000 0.000000 0.000000 0.000000 -0.000000 0.000000 0.000000 -0.000000 0.000000 0.000000 -0.000000 0.000000 0.000000 -0.000000 0.000000 0.000000 0.000000 0.000000 0.000000 0.000000 0.000000 0.000000 -0.000000 0.000000 9.892251 -0.000000 0.000000 0.000000 -0.000000 0.000000 0.000000 0.000000 0.000000 0.000000 -0.000000 0.000000 9.892251 -0.000000 0.000000 0.000000 -0.000000 0.000000 0.000000 0.000000 0.000000 0.000000
39.379925 39.520347 377.322702 -0.015546 0.029227 -9.861964 0.020322 -0.026133 9.861972 -0.000000 0.000000 0.000000 1.002086 -0.082213 0.080850 0.000000 0.000000 0.000000 -0.000000 0.000000 0.000000 2.321081 0.901498 -1.909971 -0.042063 3.335278 3.773935 0.811001 -1.803662 -2.345723 0.000000 0.000000 0.000000 0.000000 0.000000 0.000000 -1.005251 -1.694349 -0.859661 2.165559 6.310248 1.481593 0.019197 -12.711709 -4.251666 -1.210782 8.178827 1.701307 0.000000 0.000000 0.000000 0.000000 0.000000 0.000000 0.020322 -0.026133 9.861972 -0.000000 0.000000 0.000000 -0.000000 0.000000 0.000000 0.000000 0.000000 0.000000 0.020322 -0.026133 9.861972 -0.000000 0.000000 0.000000 3.624093 -5.516604 -5.645646 0.000000 0.000000 0.000000
39.463212 39.540502 377.400845 -0.044174 0.026972 -9.774326 0.048112 -0.019081 9.774345 -0.000000 0.000000 0.000000 1.743804 -0.211538 0.157310 0.000000 0.000000 0.000000 -0.000000 0.000000 0.000000 4.983377 1.841712 -4.116323 -1.257634 6.125117 7.452172 2.428741 -2.525508 -4.055099 0.000000 0.000000 0.000000 0.000000 0.000000 0.000000 -1.824423 -2.995708 -1.551403 3.563817 11.297924 2.667012 -0.243535 -24.220375 -8.181846 -3.226895 15.607610 4.242926 0.000000 0.000000 0.000000 0.000000 0.000000 0.000000 0.048112 -0.019081 9.774345 -0.000000 0.000000 0.000000 0.003777 0.921507 0.671449 0.000000 0.000000 0.000000 0.048112 -0.019081 9.774345 -0.000000 0.000000 0.000000 6.249282 -10.504727 -10.127282 0.000000 0.000000 0.000000
39.528075 39.563364 377.467392 -0.085925 -0.006822 -9.629810 0.083573 0.021099 9.629790 -0.000000 0.000000 0.000000 2.224115 -0.388866 0.229413 0.000000 0.000000 0.000000 0.182132 -0.920333 0.160240 7.835207 3.672102 -6.918055 -3.540542 8.404812 11.144904 4.790259 -2.348482 -5.229101 0.000000 0.000000 0.000000 0.000000 0.000000 0.000000 -2.440047 -3.904852 -2.056405 4.304691 14.987334 3.674328 -0.770260 -33.682484 -11.660091 -5.626452 21.431702 7.244766 0.000000 0.000000 0.000000 0.000000 0.000000 0.000000 0.083573 0.021099 9.629790 -0.000000 0.000000 0.000000 0.148579 1.371306 0.861357 0.000000 0.000000 0.000000 -0.489756 -0.538284 10.173147 0.663135 0.449297 -0.548545 7.900546 -14.376864 -13.226519 0.000000 0.000000 0.000000
39.574514 39.588931 377.522344 -0.140854 -0.072250 -9.428995 0.127115 0.094349 9.428802 -0.000000 0.000000 0.000000 2.442005 -0.615100 0.296563 0.000000 0.000000 0.000000 0.241315 -1.190204 0.207486 11.163282 4.801936 -9.898642 -6.821887 10.219295 14.908524 7.789725 -1.479733 -5.963449 0.000000 0.000000 0.000000 0.000000 0.000000 0.000000 -2.840051 -4.424915 -2.361394 4.463252 17.430299 4.568008 -1.377995 -40.541001 -14.484508 -7.887038 25.101334 10.239946 0.000000 0.000000 0.000000 0.000000 0.000000 0.000000 -0.004167 -0.529970 10.017663 0.237892 0.591961 -0.590589 0.389266 1.814784 0.953991 0.000000 0.000000 0.000000 -0.561920 -0.567688 10.036651 0.793901 0.531777 -0.614379 8.706809 -16.803669 -14.870303 0.000000 0.000000 0.000000
